<?xml version="1.0" encoding="UTF-8" standalone="no"?>
<!DOCTYPE svg PUBLIC "-//W3C//DTD SVG 1.1//EN" "http://www.w3.org/Graphics/SVG/1.1/DTD/svg11.dtd">
<svg width="100%" height="100%" viewBox="0 0 2000 600" version="1.1" xmlns="http://www.w3.org/2000/svg" xmlns:xlink="http://www.w3.org/1999/xlink" xml:space="preserve" xmlns:serif="http://www.serif.com/" style="fill-rule:evenodd;clip-rule:evenodd;stroke-linejoin:round;stroke-miterlimit:2;">
    <g transform="matrix(2.25169,0,0,2.25169,-1251.69,-1951.68)">
        <g>
            <path d="M1072.43,1024.64L1072.43,1073.23L1102.98,1073.23C1126.58,1073.23 1136.99,1064.21 1136.99,1048.24C1136.99,1032.28 1129.01,1024.64 1102.63,1024.64L1072.43,1024.64ZM1072.43,926.422L1072.43,970.152L1101.94,970.152C1123.46,970.152 1131.44,960.78 1131.44,947.246C1131.44,933.361 1122.76,926.422 1101.59,926.422L1072.43,926.422ZM1013.43,873.317L1099.16,873.317C1160.25,873.317 1191.48,897.614 1191.48,945.162C1191.48,967.375 1182.46,983.689 1166.84,994.446C1187.32,1005.21 1198.77,1023.25 1198.77,1049.63C1198.77,1102.39 1162.33,1126.68 1101.59,1126.68L1013.43,1126.68L1013.43,873.317Z" style="fill-rule:nonzero;"/>
            <path d="M1281.72,873.317L1432,873.317L1432,929.544L1342.11,929.544L1342.11,971.192L1432,971.192L1432,1027.42L1342.11,1027.42L1342.11,1070.46L1432,1070.46L1432,1126.68L1281.72,1126.68L1281.72,873.317Z" style="fill-rule:nonzero;"/>
            <rect x="817.937" y="952.08" width="95.84" height="95.841" style="fill:rgb(255,188,0);fill-rule:nonzero;"/>
            <path d="M718.282,929.534L718.282,873.307L568,873.307L568,1126.69L718.282,1126.69L718.282,1070.47L628.371,1070.47L628.371,1027.43L718.282,1027.43L718.282,971.207L628,971.207L628,929.534L718.282,929.534Z" style="fill-rule:nonzero;"/>
        </g>
    </g>
</svg>
